<svg xmlns="http://www.w3.org/2000/svg" xmlns:xlink="http://www.w3.org/1999/xlink" width="239.212" height="244.765" viewBox="0 0 239.212 244.765"><defs><linearGradient id="a" x1="142.779" x2="157.754" y1="30.79" y2="222.972" gradientUnits="userSpaceOnUse"><stop offset="0" stop-color="#009db6"/><stop offset=".49" stop-color="#00558a"/><stop offset="1" stop-color="#835fac"/></linearGradient><linearGradient id="b" x1="86.154" x2="101.13" y1="35.202" y2="227.384" xlink:href="#a"/><linearGradient id="c" x1="143.626" x2="158.601" y1="30.724" y2="222.906" xlink:href="#a"/><linearGradient id="d" x1="95.593" x2="110.568" y1="34.467" y2="226.648" xlink:href="#a"/><linearGradient id="e" x1="79.829" x2="94.805" y1="35.695" y2="227.877" xlink:href="#a"/><linearGradient id="f" x1="84.962" x2="99.938" y1="35.295" y2="227.477" xlink:href="#a"/></defs><title>bcoin-logo-only</title><g><polygon points="128.545 148.57 128.462 96.789 173.345 122.606 128.545 148.57" style="fill:url(#a)"/><polygon points="119.529 163.078 119.618 214.859 74.731 189.041 119.529 163.078" style="fill:url(#b)"/><polygon points="128.957 213.59 180.367 184.212 180.367 131.113 128.957 160.491 128.957 213.59" style="fill:url(#c)"/><polygon points="118.562 28.803 118.647 80.583 73.764 54.766 118.562 28.803" style="fill:url(#d)"/><polygon points="67.795 181.706 67.713 129.925 112.596 155.742 67.795 181.706" style="fill:url(#e)"/><polygon points="67.795 115.434 67.713 63.653 112.596 89.47 67.795 115.434" style="fill:url(#f)"/><polygon points="119.529 96.806 119.618 148.586 74.731 122.769 119.529 96.806" style="fill:none"/></g></svg>